<svg width="37" height="71" viewBox="0 0 37 71" fill="none" xmlns="http://www.w3.org/2000/svg">
<path d="M0.569447 34.1309L33.5337 0.679626C33.7128 0.47387 33.9315 0.307506 34.1763 0.190788C34.4212 0.0740688 34.687 0.00946748 34.9574 0.000964737C35.2278 -0.00753801 35.497 0.040238 35.7485 0.141348C36 0.242459 36.2284 0.394762 36.4197 0.588871C36.611 0.782981 36.7611 1.01478 36.8607 1.27C36.9603 1.52521 37.0074 1.79843 36.999 2.07281C36.9907 2.34719 36.927 2.61692 36.812 2.86538C36.697 3.11385 36.533 3.33577 36.3303 3.51749L4.77269 35.5423L36.3303 67.567C36.6068 67.8473 36.7954 68.2043 36.8725 68.5931C36.9496 68.9819 36.9116 69.3852 36.7633 69.7521C36.6151 70.1191 36.3632 70.4334 36.0394 70.6554C35.7155 70.8774 35.3342 70.9973 34.9434 71C34.6848 71.0004 34.4287 70.948 34.1905 70.8459C33.9522 70.7439 33.7366 70.5942 33.5565 70.4059L0.584305 36.9536C0.400463 36.7693 0.25423 36.55 0.153976 36.3083C0.0537224 36.0665 0.00141144 35.8071 3.05176e-05 35.5449C-0.0013504 35.2826 0.0482254 35.0226 0.145931 34.7798C0.243637 34.537 0.387554 34.3172 0.569447 34.1309Z" fill="#F88500"/>
</svg>
