<?xml version="1.0" encoding="utf-8"?>
<svg version="1.0" width="1124.000000pt" height="229.000000pt" viewBox="0 0 1124.000000 229.000000" preserveAspectRatio="xMidYMid meet" xmlns="http://www.w3.org/2000/svg">
  <defs/>
  <g transform="translate(0.000000,229.000000) scale(0.100000,-0.100000)" fill="#000000" stroke="none">
    <path d="M580 1375 l0 -445 90 0 90 0 0 165 0 164 488 3 487 3 55 26 c118 55&#10;173 134 173 250 0 114 -65 203 -186 253 -51 20 -66 21 -624 24 l-573 3 0 -446z&#10;m1085 294 c21 -6 54 -26 72 -44 29 -29 33 -40 33 -85 0 -45 -4 -56 -33 -85&#10;-18 -18 -51 -38 -72 -44 -26 -7 -189 -11 -472 -11 l-433 0 0 140 0 140 433 0&#10;c283 0 446 -4 472 -11z"/>
    <path d="M2110 1375 l0 -445 80 0 80 0 0 185 c0 141 3 185 13 185 6 0 88 -84&#10;181 -185 l168 -185 105 0 105 0 -176 184 c-97 101 -176 186 -176 189 0 2 19 8&#10;43 11 59 9 142 59 172 104 81 123 37 290 -95 357 -71 36 -138 45 -325 45&#10;l-175 0 0 -445z m342 314 c102 -22 149 -104 110 -191 -29 -66 -80 -88 -200&#10;-88 l-92 0 0 145 0 145 65 0 c35 0 88 -5 117 -11z"/>
    <path d="M3289 1806 c-143 -40 -247 -123 -306 -244 -37 -74 -38 -79 -38 -186&#10;0 -104 2 -115 32 -179 60 -125 167 -213 313 -253 37 -10 127 -17 273 -21 l217&#10;-6 0 76 0 76 -213 3 -213 3 -66 33 c-114 56 -168 142 -168 267 0 125 54 211&#10;168 267 l67 33 435 0 c429 0 436 0 483 -22 27 -13 66 -36 87 -53 36 -29 42&#10;-30 134 -30 53 0 96 3 96 8 0 4 -16 28 -35 55 -46 61 -138 129 -217 158 -62&#10;23 -68 23 -533 26 -359 1 -481 -1 -516 -11z"/>
    <path d="M7561 1495 c-161 -45 -285 -169 -327 -328 -27 -102 -13 -220 37 -323&#10;34 -68 123 -155 197 -192 94 -46 151 -54 356 -50 159 4 188 7 239 27 122 48&#10;220 146 268 269 32 81 32 233 0 314 -48 123 -146 221 -268 269 -52 21 -77 23&#10;-253 26 -149 2 -208 -1 -249 -12z m432 -140 c65 -23 149 -101 178 -167 18 -41&#10;23 -71 23 -133 0 -105 -27 -167 -100 -234 -79 -72 -127 -86 -304 -86 -177 0&#10;-225 14 -304 86 -74 67 -100 129 -100 234 0 102 26 166 95 230 84 79 149 96&#10;339 90 83 -2 141 -9 173 -20z" style="fill: rgb(255, 64, 0);"/>
    <path d="M3910 1055 l0 -445 80 0 80 0 0 185 0 185 63 0 62 -1 200 -184 199&#10;-185 103 0 c57 0 103 2 103 4 0 2 -87 82 -192 176 -106 95 -194 176 -196 180&#10;-1 4 22 10 51 13 117 12 223 88 247 179 24 86 -5 192 -67 249 -80 75 -156 89&#10;-480 89 l-253 0 0 -445z m560 299 c115 -46 102 -220 -19 -254 -20 -5 -114 -10&#10;-208 -10 l-173 0 0 140 0 140 180 0 c141 0 188 -3 220 -16z" style="fill: rgb(255, 64, 0);"/>
    <path d="M4940 1055 l0 -445 355 0 355 0 0 65 0 65 -275 0 -275 0 0 140 0 140&#10;265 0 265 0 0 65 0 65 -265 0 -265 0 0 110 0 110 275 0 275 0 0 65 0 65 -355&#10;0 -355 0 0 -445z" style="fill: rgb(255, 64, 0);"/>
    <path d="M5810 1055 l0 -445 80 0 80 0 0 375 c0 293 3 375 13 375 6 0 86 -169&#10;177 -376 l165 -375 104 3 104 3 163 370 c104 237 168 371 178 373 14 3 16 -35&#10;16 -372 l0 -376 80 0 80 0 0 445 0 445 -137 0 -138 -1 -164 -374 c-118 -269&#10;-169 -375 -180 -375 -11 1 -64 111 -181 375 l-164 375 -138 0 -138 0 0 -445z" style="fill: rgb(255, 64, 0);"/>
    <path d="M8530 1055 l0 -445 75 0 75 0 0 375 c0 351 1 375 18 375 11 -1 96&#10;-122 262 -375 l245 -375 128 0 127 0 0 445 0 445 -75 0 -75 0 0 -376 c0 -338&#10;-2 -375 -16 -372 -9 2 -125 170 -259 373 l-243 370 -131 3 -131 3 0 -446z" style="fill: rgb(255, 64, 0);"/>
    <path d="M9600 1435 l0 -65 195 0 195 0 0 -380 0 -380 80 0 80 0 0 380 0 380&#10;200 0 200 0 0 65 0 65 -475 0 -475 0 0 -65z" style="fill: rgb(255, 64, 0);"/>
  </g>
</svg>