<svg width="37" height="71" viewBox="0 0 37 71" fill="none" xmlns="http://www.w3.org/2000/svg">
<path d="M36.4306 34.1309L3.46629 0.679626C3.28721 0.47387 3.06852 0.307506 2.82367 0.190788C2.57882 0.0740688 2.31302 0.00946748 2.04263 0.000964737C1.77225 -0.00753801 1.50301 0.040238 1.25151 0.141348C1.00001 0.242459 0.771583 0.394762 0.580299 0.588871C0.389015 0.782981 0.238929 1.01478 0.139291 1.27C0.0396522 1.52521 -0.00742828 1.79843 0.000950693 2.07281C0.00932966 2.34719 0.0729906 2.61692 0.18801 2.86538C0.30303 3.11385 0.466972 3.33577 0.669732 3.51749L32.2273 35.5423L0.669732 67.567C0.393213 67.8473 0.204557 68.2043 0.1275 68.5931C0.0504438 68.9819 0.0884291 69.3852 0.236677 69.7521C0.384925 70.1191 0.636813 70.4334 0.960648 70.6554C1.28448 70.8774 1.6658 70.9973 2.05662 71C2.31523 71.0004 2.57128 70.948 2.80954 70.8459C3.04779 70.7439 3.26339 70.5942 3.4435 70.4059L36.4157 36.9536C36.5995 36.7693 36.7458 36.55 36.846 36.3083C36.9463 36.0665 36.9986 35.8071 37 35.5449C37.0014 35.2826 36.9518 35.0226 36.8541 34.7798C36.7564 34.537 36.6125 34.3172 36.4306 34.1309Z" fill="#F88500"/>
</svg>
